PathFileType	4	(X/Y/Z)	./motion_analysis/DM_ngait_tm_med1_new.trc
DataRate	CameraRate	NumFrames	NumMarkers	Units	OrigDataRate	OrigDataStartFrame	OrigNumFrames
120	120	4	68	mm	120	1030	2061
Frame#	Time	Sternum			Neck			R_Shoulder			L_Shoulder			Xiphoid			Thoracic			R_Asis			L_Asis			R_Psis			L_Psis			Lumbar			R_Elbow			R_ElbowMedial			R_ShoulderAnterior			R_ShoulderPosterior			R_Wrist			R_Radius			R_Ulna			L_Elbow			L_ElbowMedial			L_ShoulderAnterior			L_ShoulderPosterior			L_Wrist			L_Ulna			L_Radius			L_Thigh_Superior			L_Thigh_Inferior			L_Thigh_Lateral			L_Knee_Lateral			L_Knee_Medial			L_Patella			L_Shank_Superior			L_Shank_Inferior			L_Shank_Lateral			L_Ankle_Lateral			L_Ankle_Medial			R_Thigh_Superior			R_Thigh_Inferior			R_Thigh_Lateral			R_Knee_Lateral			R_Knee_Medial			R_Patella			R_Shank_Superior			R_Shank_Inferior			R_Shank_Lateral			R_Ankle_Lateral			RankleMedial			R_Heel			R_Toe			R_Midfoot_Medial			R_Midfoot_Lateral			R_Hindfoot			R_Midfoot_Superior			R_ToeMedial			R_ToeLateral			L_Heel			L_Toe			L_Midfoot_Medial			L_Midfoot_Lateral			L_Hindfoot			L_Midfoot_Superior			L_ToeMedial			L_ToeLateral			Oglobal			Sacral			Xglobal			Yglobal			Zglobal			
		X1	Y1	Z1	X2	Y2	Z2	X3	Y3	Z3	X4	Y4	Z4	X5	Y5	Z5	X6	Y6	Z6	X7	Y7	Z7	X8	Y8	Z8	X9	Y9	Z9	X10	Y10	Z10	X11	Y11	Z11	X12	Y12	Z12	X13	Y13	Z13	X14	Y14	Z14	X15	Y15	Z15	X16	Y16	Z16	X17	Y17	Z17	X18	Y18	Z18	X19	Y19	Z19	X20	Y20	Z20	X21	Y21	Z21	X22	Y22	Z22	X23	Y23	Z23	X24	Y24	Z24	X25	Y25	Z25	X26	Y26	Z26	X27	Y27	Z27	X28	Y28	Z28	X29	Y29	Z29	X30	Y30	Z30	X31	Y31	Z31	X32	Y32	Z32	X33	Y33	Z33	X34	Y34	Z34	X35	Y35	Z35	X36	Y36	Z36	X37	Y37	Z37	X38	Y38	Z38	X39	Y39	Z39	X40	Y40	Z40	X41	Y41	Z41	X42	Y42	Z42	X43	Y43	Z43	X44	Y44	Z44	X45	Y45	Z45	X46	Y46	Z46	X47	Y47	Z47	X48	Y48	Z48	X49	Y49	Z49	X50	Y50	Z50	X51	Y51	Z51	X52	Y52	Z52	X53	Y53	Z53	X54	Y54	Z54	X55	Y55	Z55	X56	Y56	Z56	X57	Y57	Z57	X58	Y58	Z58	X59	Y59	Z59	X60	Y60	Z60	X61	Y61	Z61	X62	Y62	Z62	X63	Y63	Z63	X64	Y64	Z64	X65	Y65	Z65	X66	Y66	Z66	X67	Y67	Z67	X68	Y68	Z68	

1031	8.591666999999999	-988.345	1372.74	404.724	-836.641	1465.13	398.407	-924.073	1394.95	235.183	-915.024	1427.2	575.154	-1002.82	1209.08	417.01	-737.832	1280.16	425.136	-923.72	990.913	295.692	-924.145	993.454	574.546	-718.498	1024.64	403.436	-720.276	1024.73	483.679	-719.792	1074.3	440.542	-1014.66	1085.73	177.369	-0	0	0	-0	0	0	-0	0	0	-1213.16	940.599	291.406	-1183.65	932.682	326.862	-1196.22	911.1660000000001	257.032	-936.6950000000001	1089.83	667.849	-0	0	0	-0	0	0	-0	0	0	-1038.21	842.153	632.021	-997.1180000000001	842.361	657.758	-1025.11	858.508	590.191	-858.394	804.933	599.779	-854.7809999999999	584.4450000000001	577.439	-913.097	671.478	559.144	-0	0	0	-0	0	0	-871.353	467.081	536.559	-756.258	459.158	588.364	-542.727	298.256	581.692	-674.6609999999999	339.999	521.9690000000001	-0	0	0	-0	0	0	-864.783	807.299	270.489	-938.5170000000001	604.878	313.314	-1002.63	686.567	357.495	-0	0	0	-0	0	0	-1030.07	536.836	389.902	-0	0	0	-940.95	201.72	314.059	-994.807	329.981	385.834	-0	0	0	-0	0	0	-860.401	75.1467	365.977	-1159.48	70.9794	357.13	-1083.98	47.869	411.628	-1070.28	46.0642	295.174	-959.615	41.6096	309.739	-1020.83	134.294	359.069	-1126.35	58.7322	402.699	-1118.54	56.9194	309.473	-414.984	279.396	524.996	-578.835	35.7946	552.343	-518.163	79.9277	497.898	-506.53	99.3535	610.119	-440.718	183.819	591.397	-555.241	178.22	544.765	-541.917	51.0729	507.056	-540.311	57.7642	603.525	-0	0	0	-719.3869999999999	1024.69	443.558	-200	0	0	-0	0	200	-0	200	0	
1032	8.6	-988.351	1373.79	404.036	-836.7430000000001	1466.29	397.047	-924.902	1395.76	234.299	-914.414	1428.5	574.227	-1002.62	1209.94	416.711	-737.768	1281.41	423.519	-923.689	991.919	294.706	-923.691	994.3339999999999	573.622	-718.373	1025.9	402.19	-720.058	1026	482.358	-719.674	1075.57	439.312	-1016.2	1086.73	176.955	-0	0	0	-0	0	0	-0	0	0	-1214.29	941.028	291.282	-1184.68	933.211	326.667	-1197.29	911.731	256.941	-934.417	1091.18	667.769	-0	0	0	-0	0	0	-0	0	0	-1034.32	842.7190000000001	632.64	-993.3150000000001	843.437	658.664	-1020.5	858.6130000000001	589.598	-859.725	806.361	599.48	-860.273	585.537	578.292	-917.319	673.329	560.67	-0	0	0	-0	0	0	-878.595	468.076	537.729	-762.553	461.322	588.909	-547.217	303.458	580.503	-680.501	342.761	522.116	-0	0	0	-0	0	0	-863.6180000000001	808.266	269.504	-935.41	605.106	312.397	-1000.28	686.196	356.393	-0	0	0	-0	0	0	-1026.22	536.241	388.993	-0	0	0	-934.9829999999999	201.749	313.74	-989.495	329.764	385.506	-0	0	0	-0	0	0	-853.706	75.14570000000001	365.926	-1152.76	70.8685	357.027	-1077.29	47.8019	411.506	-1063.56	46.0403	295.056	-952.856	41.6355	309.685	-1014.08	134.237	358.997	-1119.59	58.6594	402.644	-1111.85	56.7145	309.539	-420.903	286.543	521.629	-576.607	37.011	553.731	-519.11	84.2435	497.173	-505.186	104.076	609.061	-442.146	190.326	588.727	-557.697	181.519	544.952	-541.675	53.7729	507.396	-537.4450000000001	60.8398	603.476	-0	0	0	-719.216	1025.95	442.274	-200	0	0	-0	0	200	-0	200	0	
1033	8.608333	-988.312	1374.86	403.489	-836.766	1467.38	395.768	-925.61	1396.68	233.4	-913.665	1429.79	573.3440000000001	-1002.37	1210.9	416.403	-737.588	1282.59	422.02	-923.6369999999999	993.011	293.784	-923.117	995.0700000000001	572.725	-718.189	1027.16	400.957	-719.784	1027.27	480.98	-719.5	1076.84	438.123	-1017.81	1087.81	176.561	-0	0	0	-0	0	0	-0	0	0	-1215.38	941.412	291.151	-1185.65	933.665	326.362	-1198.36	912.26	256.734	-931.968	1092.43	667.688	-0	0	0	-0	0	0	-0	0	0	-1030.38	843.355	633.345	-989.4690000000001	844.428	659.548	-1016.32	859.04	589.776	-860.728	807.817	599.167	-865.758	586.64	579.148	-921.388	675.258	562.0549999999999	-0	0	0	-0	0	0	-885.648	469.242	538.9829999999999	-768.881	463.774	589.399	-552.005	308.137	579.1079999999999	-686.463	345.514	522.092	-0	0	0	-0	0	0	-862.361	809.216	268.54	-932.178	605.35	311.46	-997.595	685.872	356.411	-0	0	0	-0	0	0	-1022.13	535.518	387.94	-0	0	0	-928.953	201.755	313.514	-984.08	329.585	385.202	-0	0	0	-0	0	0	-846.957	75.18899999999999	365.868	-1146.07	70.83369999999999	357.027	-1070.52	47.714	411.504	-1056.8	45.9163	295.052	-946.157	41.6011	309.649	-1007.36	134.166	358.949	-1113	58.2071	402.68	-1105.08	56.8299	309.316	-426.299	292.251	517.5940000000001	-577.471	40.4304	555.821	-522.338	88.4652	497.215	-505.66	109.298	608.543	-444.406	196.27	585.88	-560.877	185.612	545.338	-544.225	57.6566	508.233	-537.273	65.41160000000001	604.308	-0	0	0	-718.987	1027.21	440.968	-200	0	0	-0	0	200	-0	200	0	
1034	8.616667	-988.167	1375.89	402.959	-836.6660000000001	1468.48	394.561	-926.319	1397.62	232.586	-912.794	1430.99	572.592	-1002.08	1211.87	416.259	-737.325	1283.73	420.514	-923.5549999999999	994.0650000000001	292.988	-922.473	995.97	571.848	-717.942	1028.44	399.774	-719.403	1028.55	479.657	-719.253	1078.13	436.92	-1019.39	1088.98	176.231	-0	0	0	-0	0	0	-0	0	0	-1216.37	941.778	291.076	-1186.5	934.1	326.288	-1199.37	912.771	256.644	-929.252	1093.66	667.753	-0	0	0	-0	0	0	-0	0	0	-1026.57	844.123	634.369	-985.617	845.455	660.55	-1012.26	859.489	590.5069999999999	-861.54	809.371	598.998	-871.188	587.884	580.135	-925.303	677.311	563.46	-0	0	0	-0	0	0	-892.51	470.568	540.276	-775.33	466.283	589.7569999999999	-556.4	313.137	577.696	-692.431	348.166	522.013	-0	0	0	-0	0	0	-861.0309999999999	810.139	267.615	-928.776	605.521	310.591	-994.746	685.3920000000001	356.024	-0	0	0	-0	0	0	-1017.96	534.982	387.038	-0	0	0	-922.819	201.79	313.333	-978.538	329.348	384.87	-0	0	0	-0	0	0	-840.394	75.2261	366.004	-1139.36	70.7747	356.909	-1064.02	47.6785	411.29	-1050.13	46.011	294.856	-939.39	41.5885	309.568	-1000.63	134.135	358.929	-1106.26	58.115	402.627	-1098.41	56.715	309.472	-431.387	296.906	513.196	-581.25	44.9459	558.879	-527.576	92.754	497.799	-508.035	114.96	608.393	-447.579	201.674	583.123	-564.952	190.472	545.718	-549.148	61.7547	509.959	-539.712	70.7646	605.556	-0	0	0	-718.672	1028.49	439.715	-200	0	0	-0	0	200	-0	200	0	
